<?xml version="1.0" encoding="UTF-8"?>
<svg width="46px" height="46px" viewBox="0 0 46 46" version="1.1" xmlns="http://www.w3.org/2000/svg" xmlns:xlink="http://www.w3.org/1999/xlink">
    <!-- Generator: Sketch 48.2 (47327) - http://www.bohemiancoding.com/sketch -->
    <title>Icon</title>
    <desc>Created with Sketch.</desc>
    <defs>
        <filter x="-6.0%" y="-19.6%" width="112.0%" height="139.3%" filterUnits="objectBoundingBox" id="filter-1">
            <feOffset dx="0" dy="0" in="SourceAlpha" result="shadowOffsetOuter1"></feOffset>
            <feGaussianBlur stdDeviation="7" in="shadowOffsetOuter1" result="shadowBlurOuter1"></feGaussianBlur>
            <feColorMatrix values="0 0 0 0 0   0 0 0 0 0   0 0 0 0 0  0 0 0 0.04 0" type="matrix" in="shadowBlurOuter1" result="shadowMatrixOuter1"></feColorMatrix>
            <feMerge>
                <feMergeNode in="shadowMatrixOuter1"></feMergeNode>
                <feMergeNode in="SourceGraphic"></feMergeNode>
            </feMerge>
        </filter>
    </defs>
    <g id="個人｜起始畫面" stroke="none" stroke-width="1" fill="none" fill-rule="evenodd" transform="translate(-78.000000, -523.000000)">
        <g id="左側｜個人選項" filter="url(#filter-1)" transform="translate(66.000000, 461.000000)">
            <g id="開通使用權限" transform="translate(0.000000, 56.000000)">
                <g id="Icon" transform="translate(26.000000, 20.000000)">
                    <path d="M16,0 L2,0 C0.9,0 0,0.9 0,2 L0,16 C0,17.1 0.9,18 2,18 L16,18 C17.1,18 18,17.1 18,16 L18,2 C18,0.9 17.1,0 16,0" id="Fill-1" fill="#1A6CBD"></path>
                    <polygon fill="#FFFFFF" points="8 12.6461053 12.708 15 11.727 10.5606316 15 7.57515789 10.6854 7.18547368 9 3 7.3146 7.18547368 3 7.57515789 6.273 10.5606316 5.292 15"></polygon>
                </g>
            </g>
        </g>
    </g>
</svg>